<?xml version="1.0" encoding="UTF-8" standalone="no"?>
<!-- Created with Inkscape (http://www.inkscape.org/) -->

<svg
   xmlns:dc="http://purl.org/dc/elements/1.1/"
   xmlns:cc="http://creativecommons.org/ns#"
   xmlns:rdf="http://www.w3.org/1999/02/22-rdf-syntax-ns#"
   xmlns:svg="http://www.w3.org/2000/svg"
   xmlns="http://www.w3.org/2000/svg"
   xmlns:sodipodi="http://sodipodi.sourceforge.net/DTD/sodipodi-0.dtd"
   xmlns:inkscape="http://www.inkscape.org/namespaces/inkscape"
   width="207.55658mm"
   height="90.96666mm"
   viewBox="0 0 207.55658 90.96666"
   version="1.1"
   id="svg8"
   inkscape:version="0.92.1 r15371"
   sodipodi:docname="flowratecone.svg">
  <defs
     id="defs2">
    <inkscape:path-effect
       effect="bspline"
       id="path-effect3781"
       is_visible="true"
       weight="33.333333"
       steps="2"
       helper_size="0"
       apply_no_weight="true"
       apply_with_weight="true"
       only_selected="false" />
    <inkscape:path-effect
       effect="bspline"
       id="path-effect3777"
       is_visible="true"
       weight="33.333333"
       steps="2"
       helper_size="0"
       apply_no_weight="true"
       apply_with_weight="true"
       only_selected="false" />
    <inkscape:path-effect
       effect="bspline"
       id="path-effect3773"
       is_visible="true"
       weight="33.333333"
       steps="2"
       helper_size="0"
       apply_no_weight="true"
       apply_with_weight="true"
       only_selected="false" />
    <inkscape:path-effect
       effect="bspline"
       id="path-effect3767"
       is_visible="true"
       weight="33.333333"
       steps="2"
       helper_size="0"
       apply_no_weight="true"
       apply_with_weight="true"
       only_selected="false" />
    <inkscape:path-effect
       effect="bspline"
       id="path-effect3744"
       is_visible="true"
       weight="33.333333"
       steps="2"
       helper_size="0"
       apply_no_weight="true"
       apply_with_weight="true"
       only_selected="false" />
    <inkscape:path-effect
       effect="bspline"
       id="path-effect3740"
       is_visible="true"
       weight="33.333333"
       steps="2"
       helper_size="0"
       apply_no_weight="true"
       apply_with_weight="true"
       only_selected="false" />
    <inkscape:path-effect
       effect="bspline"
       id="path-effect3736"
       is_visible="true"
       weight="33.333333"
       steps="2"
       helper_size="0"
       apply_no_weight="true"
       apply_with_weight="true"
       only_selected="false" />
    <inkscape:path-effect
       effect="bspline"
       id="path-effect3732"
       is_visible="true"
       weight="33.333333"
       steps="2"
       helper_size="0"
       apply_no_weight="true"
       apply_with_weight="true"
       only_selected="false" />
    <inkscape:perspective
       sodipodi:type="inkscape:persp3d"
       inkscape:vp_x="0 : 148.49999 : 1"
       inkscape:vp_y="0 : 999.99995 : 0"
       inkscape:vp_z="210 : 148.49999 : 1"
       inkscape:persp3d-origin="105 : 98.999995 : 1"
       id="perspective3698" />
  </defs>
  <sodipodi:namedview
     id="base"
     pagecolor="#ffffff"
     bordercolor="#666666"
     borderopacity="1.0"
     inkscape:pageopacity="0.0"
     inkscape:pageshadow="2"
     inkscape:zoom="0.5"
     inkscape:cx="564.29236"
     inkscape:cy="302.79756"
     inkscape:document-units="mm"
     inkscape:current-layer="layer1"
     showgrid="false"
     inkscape:snap-grids="false"
     inkscape:snap-to-guides="false"
     inkscape:snap-others="false"
     inkscape:window-width="958"
     inkscape:window-height="1008"
     inkscape:window-x="953"
     inkscape:window-y="0"
     inkscape:window-maximized="0" />
  <metadata
     id="metadata5">
    <rdf:RDF>
      <cc:Work
         rdf:about="">
        <dc:format>image/svg+xml</dc:format>
        <dc:type
           rdf:resource="http://purl.org/dc/dcmitype/StillImage" />
        <dc:title></dc:title>
      </cc:Work>
    </rdf:RDF>
  </metadata>
  <g
     inkscape:label="Layer 1"
     inkscape:groupmode="layer"
     id="layer1"
     transform="translate(-1.2106277,-100.95132)">
    <path
       style="fill:none;stroke:#000000;stroke-width:0.96439356px;stroke-linecap:butt;stroke-linejoin:miter;stroke-opacity:1"
       d="M 46.044307,101.76316 169.20748,125.77548"
       id="path3724"
       inkscape:connector-curvature="0" />
    <path
       style="fill:none;stroke:#000000;stroke-width:0.96288037px;stroke-linecap:butt;stroke-linejoin:miter;stroke-opacity:1"
       d="m 45.270232,191.28278 c 8.46076,-1.5934 122.903638,-19.65191 122.903638,-19.65191"
       id="path3726"
       inkscape:connector-curvature="0" />
    <ellipse
       style="fill:#000000;stroke-width:0.97051466"
       id="path3746"
       cx="44.142834"
       cy="146.43465"
       rx="20.91997"
       ry="45.48333" />
    <ellipse
       style="fill:#cccccc;stroke-width:0.89133477"
       id="path3753"
       cx="44.93478"
       cy="146.16661"
       rx="18.91604"
       ry="43.004677"
       transform="matrix(1,0,-0.0102293,0.99994768,0,0)" />
    <path
       style="fill:#cccccc;stroke-width:0.49924293"
       d="m 49.214434,189.34009 c 3.014513,-1.85717 7.384953,-7.90163 9.520985,-13.16786 3.942268,-9.71932 5.265069,-17.3319 5.265069,-30.30002 0,-13.015 -1.320141,-20.57557 -5.309597,-30.40857 -1.358024,-3.34718 -2.772724,-5.74647 -5.120582,-8.68432 -3.072528,-3.84461 -3.169972,-4.04295 -1.842387,-3.7495 0.770944,0.17042 26.65155,5.25315 57.512448,11.295 30.86086,6.04184 56.68991,11.13052 57.39781,11.30818 1.22208,0.30665 1.24307,0.3603 0.41435,1.06111 -1.27533,1.07858 -3.23157,6.72787 -3.99239,11.52932 -0.8543,5.39149 -0.8483,15.96687 0.0142,21.45234 0.37103,2.36488 1.35831,5.97201 2.19408,8.01581 1.47435,3.6057 1.49142,3.7234 0.57487,3.96326 -0.51953,0.13595 -21.90096,3.59951 -47.51423,7.69676 -25.61329,4.09723 -51.671966,8.30023 -57.908204,9.33998 -13.49711,2.25033 -13.836384,2.26995 -11.204478,0.64851 z"
       id="path3755"
       inkscape:connector-curvature="0" />
    <ellipse
       style="fill:#000000;stroke-width:0.68585795"
       id="path3757"
       cx="167.79886"
       cy="148.63992"
       rx="7.5919247"
       ry="23.982121" />
    <ellipse
       style="fill:#cccccc;stroke-width:0.76189035"
       id="path3761"
       cx="167.74269"
       cy="148.63989"
       rx="6.1860132"
       ry="22.328182" />
    <path
       style="fill:#000000;stroke:#000000;stroke-width:0.45050853px;stroke-linecap:butt;stroke-linejoin:miter;stroke-opacity:1"
       d="m 1.2141549,148.55016 c 68.6509631,0.49099 137.3010051,0.98198 205.9502251,1.47296"
       id="path3765"
       inkscape:connector-curvature="0"
       inkscape:path-effect="#path-effect3767"
       inkscape:original-d="M 1.2141549,148.55016 C 69.86512,149.04082 138.51516,149.53198 207.16438,150.02312" />
    <path
       style="fill:none;stroke:#000000;stroke-width:0.90566456px;stroke-linecap:butt;stroke-linejoin:miter;stroke-opacity:1"
       d="m 206.82695,150.07481 c -0.78652,1.02468 -1.57379,2.05036 -2.36187,3.07707"
       id="path3771"
       inkscape:connector-curvature="0"
       inkscape:path-effect="#path-effect3773"
       inkscape:original-d="m 206.82695,150.07481 c -0.7864,1.02477 -1.57367,2.05045 -2.36187,3.07707" />
    <path
       style="fill:none;stroke:#000000;stroke-width:0.98604387px;stroke-linecap:butt;stroke-linejoin:miter;stroke-opacity:1"
       d="m 206.82695,150.07481 c -0.84362,-0.85168 -1.68715,-1.70329 -2.53056,-2.55476"
       id="path3775"
       inkscape:connector-curvature="0"
       inkscape:path-effect="#path-effect3777"
       inkscape:original-d="m 206.82695,150.07481 c -0.84262,-0.85267 -1.68616,-1.70427 -2.53056,-2.55476" />
    <path
       style="fill:none;stroke:#000000;stroke-width:0.98604387px;stroke-linecap:butt;stroke-linejoin:miter;stroke-opacity:1"
       d="m 1.2141537,148.55016 c 68.6509573,0.49099 137.3010363,0.98198 205.9502263,1.47296"
       id="path3779"
       inkscape:connector-curvature="0"
       inkscape:path-effect="#path-effect3781"
       inkscape:original-d="m 1.2141537,148.55016 c 68.6509653,0.4899 137.3010463,0.98088 205.9502263,1.47296" />
    <path
       style="fill:#ffffff;stroke-width:0.98604387"
       id="path3787"
       d="m 207.10257,149.25393 c 0.0337,0.01 0.0664,0.0256 0.0936,0.0514 0.0201,0.0236 0.0337,0.0523 0.0447,0.0837 0.01,0.0288 0.0303,0.0508 0.0485,0.071 0.0365,0.0333 0.0773,0.058 0.11783,0.0836 0.0201,0.0129 0.0356,0.0288 0.0536,0.0435 0,0 -0.17339,0.13538 -0.17339,0.13538 v 0 c -0.0169,-0.0145 -0.0337,-0.0298 -0.0509,-0.0422 -0.0418,-0.0267 -0.0848,-0.0517 -0.12295,-0.0867 -0.0203,-0.0227 -0.0423,-0.0477 -0.0538,-0.0803 -0.01,-0.0272 -0.0201,-0.0526 -0.0382,-0.0727 -0.0271,-0.0218 -0.0562,-0.0367 -0.0876,-0.0367 0,0 0.16866,-0.15021 0.16866,-0.15021 z"
       inkscape:connector-curvature="0" />
    <path
       style="fill:#ffffff;stroke-width:0.98604387"
       id="path3789"
       d="m 207.09199,149.27712 c 0.0235,0.0466 0.0515,0.0894 0.0758,0.13581 0.0169,0.0326 0.0303,0.068 0.0472,0.10175 0.0142,0.0334 0.0235,0.0466 0.0505,0.0625 0.0337,0.0122 0.0642,0.0264 0.0921,0.0522 0.0303,0.0239 0.0471,0.0645 0.0653,0.10224 0.01,0.0232 0.007,0.0122 0.0142,0.035 0,0 -0.1801,0.12443 -0.1801,0.12443 v 0 c -0.007,-0.0218 -0.002,-0.01 -0.0142,-0.0329 -0.0169,-0.0354 -0.0303,-0.0711 -0.061,-0.0931 -0.027,-0.0235 -0.0599,-0.0329 -0.091,-0.0487 -0.027,-0.0173 -0.0447,-0.0409 -0.0572,-0.0752 -0.0142,-0.0339 -0.0303,-0.0683 -0.0454,-0.10162 -0.0236,-0.0467 -0.0485,-0.0919 -0.0771,-0.13387 0,0 0.1791,-0.12857 0.1791,-0.12857 z"
       inkscape:connector-curvature="0" />
    <path
       style="fill:#ffffff;stroke-width:0.98604387"
       id="path3791"
       d="m 207.15881,150.5805 c 0.0303,0.002 0.0579,-0.002 0.0845,-0.0206 -0.34835,0.21525 -0.17675,0.14537 -0.13238,0.0832 0.007,-0.009 0.0142,-0.0201 0.0169,-0.0301 0.0142,-0.0218 0.0201,-0.0462 0.0271,-0.0716 1.9e-4,0.005 0.002,0.01 0.002,0.0145 -1.7e-4,0.002 -0.007,0.006 -0.002,0.005 0.39044,-0.26641 0.20099,-0.16332 0.15891,-0.10504 -0.064,0.092 -0.13631,0.1209 -0.23229,0.18965 -0.027,-0.002 -0.0303,-0.0371 -0.0365,-0.0627 -0.007,-0.016 -0.002,-0.007 -0.01,-0.0248 0,0 0.1808,-0.12507 0.1808,-0.12507 v 0 c 0.006,0.0181 0.002,0.009 0.01,0.0281 0.002,0.019 6.7e-4,0.0415 0.0169,0.0248 -0.34332,0.24749 -0.16327,0.14167 -0.12152,0.0688 0.002,-0.002 0.002,-0.005 0.007,-0.009 0.001,-0.004 0.001,-0.009 0.007,-0.0122 0.0614,-0.0456 0.12348,-0.0888 0.18617,-0.13144 0.002,-10e-4 0.007,-0.002 0.007,-5.1e-4 0.01,0.006 0.01,0.0122 0.0142,0.0218 0.001,0.0173 -0.001,0.0227 -0.006,0.0384 -0.007,0.0166 -0.007,0.0343 -0.0169,0.0486 -0.01,0.0156 -0.0142,0.0333 -0.0236,0.0482 -0.0518,0.0788 -0.20502,0.0339 -0.2111,0.15703 -0.0303,0.0129 -0.0599,0.0149 -0.0909,0.0142 0,0 0.16866,-0.15022 0.16866,-0.15022 z"
       inkscape:connector-curvature="0" />
    <path
       style="fill:#000000;stroke-width:0.98604387"
       id="path3793"
       d="m 207.16815,149.95455 c -0.0203,-0.0267 -0.0356,-0.0592 -0.0452,-0.0949 -0.002,-0.0247 -0.002,-0.0129 -0.006,-0.0381 0,0 0.18179,-0.11992 0.18179,-0.11992 v 0 c 0.006,0.0252 0.002,0.0129 0.006,0.0363 0.007,0.0339 0.0203,0.0627 0.0428,0.0861 0,0 -0.17943,0.13038 -0.17943,0.13038 z"
       inkscape:connector-curvature="0" />
    <path
       style="fill:#000000;stroke-width:0.98604387"
       id="path3795"
       d="m 206.93706,149.58409 c 0.0303,0.0467 0.0734,0.0816 0.11378,0.11639 0.0337,0.0293 0.0642,0.0608 0.0983,0.0882 0.0236,0.0186 0.0394,0.0431 0.0569,0.068 0.0235,0.0273 0.0374,0.0608 0.0536,0.0932 0.0142,0.0218 0.0235,0.0525 0.0428,0.0667 0.001,-9.3e-4 0.002,-9.8e-4 0.002,-0.002 8.7e-4,-0.002 0.002,-0.0129 3.5e-4,-0.01 -0.0596,0.04 -0.11544,0.0866 -0.17439,0.12753 -0.001,10e-4 0.001,-0.005 9.2e-4,-0.007 -6.8e-4,-0.006 -0.007,-0.026 -0.01,-0.0312 -0.0169,-0.0404 -0.0382,-0.0737 -0.0664,-0.10248 -0.0236,-0.0298 -0.0524,-0.0543 -0.0747,-0.0863 -0.0169,-0.0264 -0.0343,-0.0488 -0.0536,-0.071 -0.0201,-0.026 -0.0337,-0.0592 -0.0367,-0.0954 0.007,-0.10943 0.14308,-0.14265 0.20098,-0.18066 9.2e-4,-7.2e-4 0.0343,8.4e-4 0.035,8.7e-4 0.027,0.01 0.0528,0.0173 0.0758,0.0346 0.002,0.002 0.0236,0.0235 0.027,0.0273 0.0142,0.0122 0.0201,0.0268 0.0343,0.0367 0.001,0.002 0.002,0.005 0.007,0.005 10e-4,-3.3e-4 0.002,-0.006 10e-4,-0.005 -0.0599,0.0429 -0.1189,0.088 -0.17843,0.13189 -0.007,-0.0227 -0.0303,-0.0333 -0.0461,-0.0457 -0.0271,-0.0152 -0.0546,-0.0298 -0.0819,-0.0437 -0.0337,-0.0136 -0.0623,-0.0359 -0.0913,-0.0597 -0.0236,-0.0222 -0.0454,-0.0444 -0.0687,-0.0661 -0.0236,-0.0185 -0.0485,-0.0404 -0.0696,-0.0653 -0.0203,-0.0185 -0.04,-0.0339 -0.0575,-0.0554 -0.0201,-0.0198 -0.0415,-0.0404 -0.0649,-0.055 -0.071,0.0298 0.01,-0.005 0.17271,-0.11565 9e-4,-8.3e-4 -0.002,-0.005 -0.002,-0.002 -0.001,0.002 0.0169,0.0239 0.0203,0.0256 0.0303,0.0355 0.0715,0.0494 0.10746,0.0742 0.0337,0.026 0.064,0.0542 0.0933,0.0852 0.0303,0.0264 0.0555,0.0576 0.0824,0.0876 0.0203,0.0284 0.0367,0.0627 0.0578,0.0906 0.0169,0.0284 0.04,0.0529 0.0602,0.0794 0.0201,0.0185 0.04,0.0371 0.0566,0.061 0.0169,0.0227 0.0337,0.045 0.0509,0.0656 0.002,0.005 0.007,0.007 0.01,0.0129 0,0 -0.17574,0.13342 -0.17574,0.13342 v 0 c -0.002,-0.005 -0.007,-0.009 -0.01,-0.0129 -0.0169,-0.0215 -0.036,-0.0433 -0.0524,-0.067 -0.0169,-0.0232 -0.0367,-0.0404 -0.0552,-0.0609 -0.0201,-0.0264 -0.0418,-0.0514 -0.0602,-0.0799 -0.0201,-0.0284 -0.0361,-0.0608 -0.0566,-0.0888 -0.0271,-0.0298 -0.0522,-0.061 -0.0811,-0.0875 -0.0303,-0.0289 -0.0594,-0.0564 -0.0913,-0.081 -0.0374,-0.0252 -0.0785,-0.0427 -0.1108,-0.0779 -0.002,-0.005 -0.0442,-0.0511 -0.0341,-0.0589 0.17203,-0.13869 0.12386,-0.16559 0.19493,-0.12017 0.0235,0.0185 0.0471,0.0367 0.0679,0.0597 0.0169,0.0198 0.0391,0.0355 0.057,0.0556 0.0201,0.0236 0.0447,0.0437 0.0684,0.0636 0.0235,0.0215 0.0457,0.0422 0.0677,0.0648 0.0271,0.0236 0.0572,0.0419 0.0891,0.0555 0.027,0.0149 0.0568,0.0284 0.0839,0.0466 0.0203,0.016 0.0447,0.0322 0.057,0.0605 -0.1882,0.14996 -0.13267,0.18974 -0.22387,0.0899 -0.027,-0.0273 -0.0586,-0.0455 -0.0942,-0.0471 -0.007,7.6e-4 -0.01,7e-4 -0.0169,0.002 -0.002,0.001 -0.0169,0.01 -0.0142,0.006 0.0546,-0.0412 0.11008,-0.0804 0.1653,-0.12066 -0.007,0.005 -0.01,0.006 -0.0169,0.0152 -0.001,0.002 -0.002,0.007 -0.002,0.01 -10e-4,0.0305 0.01,0.0578 0.027,0.0788 0.0201,0.0226 0.0382,0.0467 0.0548,0.0736 0.0203,0.0309 0.0485,0.0554 0.0717,0.0843 0.0303,0.0322 0.0554,0.0679 0.0723,0.11187 10e-4,0.005 0.0201,0.0501 0.0169,0.0533 -0.0833,0.0759 -0.12688,0.1899 -0.19593,0.13017 -0.0169,-0.0222 -0.0337,-0.0476 -0.0454,-0.0748 -0.0142,-0.0318 -0.0303,-0.0639 -0.0515,-0.0896 -0.0169,-0.0232 -0.0343,-0.0442 -0.0543,-0.0625 -0.0337,-0.0293 -0.0625,-0.0619 -0.095,-0.0909 -0.042,-0.0367 -0.0845,-0.0743 -0.12112,-0.11944 0,0 0.17843,-0.1307 0.17843,-0.1307 z"
       inkscape:connector-curvature="0" />
    <path
       style="fill:#ffffff;stroke-width:0.98604387"
       id="path3797"
       d="m 206.93368,150.59329 c 0.0303,-0.026 0.0586,-0.0544 0.0863,-0.0837 0.027,-0.0294 0.0485,-0.0649 0.0677,-0.10248 0.0169,-0.0432 0.0303,-0.0882 0.0459,-0.132 0.0142,-0.0363 0.0203,-0.0748 0.0271,-0.11297 0.002,-0.04 0.0142,-0.0787 0.0236,-0.117 0.01,-0.0339 0.0142,-0.0694 0.0142,-0.10492 9.2e-4,-0.035 8.2e-4,-0.0702 9.2e-4,-0.10504 -9.2e-4,-0.0305 -0.007,-0.0623 -0.0303,-0.0788 -0.0169,-0.007 -0.035,-0.007 -0.0524,-0.009 0,0 0.16767,-0.14688 0.16767,-0.14688 v 0 c 0.0203,0.002 0.0423,0.004 0.0602,0.0198 0.0235,0.0256 0.0353,0.0608 0.0383,0.0999 4.7e-4,0.0354 4.5e-4,0.0706 -2.7e-4,0.1059 -9e-4,0.0371 -0.002,0.0749 -0.0142,0.11102 -0.01,0.0384 -0.0201,0.075 -0.0236,0.11541 -0.006,0.0395 -0.0169,0.0793 -0.0271,0.11786 -0.007,0.0232 -0.0201,0.0451 -0.027,0.0684 -10e-4,0.005 -0.01,0.04 -0.01,0.0459 -0.001,0.006 -0.007,0.0135 -0.007,0.0201 -0.0169,0.04 -0.0394,0.077 -0.0649,0.11017 -0.027,0.0281 -0.0546,0.0572 -0.0833,0.0837 0,0 -0.19392,0.0944 -0.19392,0.0944 z"
       inkscape:connector-curvature="0" />
    <rect
       style="fill:#ffffff;stroke-width:0.98604387"
       id="rect3799"
       width="1.0544341"
       height="0.5513131"
       x="207.71277"
       y="148.62265" />
  </g>
</svg>
