<?xml version="1.0" encoding="UTF-8" standalone="no"?>
<!-- Created with Inkscape (http://www.inkscape.org/) -->
<svg
   xmlns:dc="http://purl.org/dc/elements/1.1/"
   xmlns:cc="http://web.resource.org/cc/"
   xmlns:rdf="http://www.w3.org/1999/02/22-rdf-syntax-ns#"
   xmlns:svg="http://www.w3.org/2000/svg"
   xmlns="http://www.w3.org/2000/svg"
   xmlns:sodipodi="http://sodipodi.sourceforge.net/DTD/sodipodi-0.dtd"
   xmlns:inkscape="http://www.inkscape.org/namespaces/inkscape"
   id="svg2"
   sodipodi:version="0.32"
   inkscape:version="0.45.1"
   sodipodi:docbase="/home/spider"
   sodipodi:docname="BatchDistill-stp.svg"
   inkscape:output_extension="org.inkscape.output.svg.inkscape"
   version="1.0"
   x="0"
   y="0"
   width="460"
   height="260">
  <defs
     id="defs4">
    <marker
       inkscape:stockid="Arrow2Mend"
       orient="auto"
       refY="0"
       refX="0"
       id="Arrow2Mend"
       style="overflow:visible">
      <path
         id="path4160"
         style="font-size:16px;fill-rule:evenodd;stroke-width:0.625;stroke-linejoin:round"
         d="M 8.7185878,4.0337352 L -2.2072895,0.016013256 L 8.7185884,-4.0017078 C 6.97309,-1.6296469 6.9831476,1.6157441 8.7185878,4.0337352 z "
         transform="scale(-0.6,-0.6)" />
    </marker>
    <marker
       inkscape:stockid="Arrow2Lend"
       orient="auto"
       refY="0"
       refX="0"
       id="Arrow2Lend"
       style="overflow:visible">
      <path
         id="path4154"
         style="font-size:16px;fill-rule:evenodd;stroke-width:0.625;stroke-linejoin:round"
         d="M 8.7185878,4.0337352 L -2.2072895,0.016013256 L 8.7185884,-4.0017078 C 6.97309,-1.6296469 6.9831476,1.6157441 8.7185878,4.0337352 z "
         transform="matrix(-1.1,0,0,-1.1,-1.1,0)" />
    </marker>
  </defs>
  <sodipodi:namedview
     id="base"
     pagecolor="#ffffff"
     bordercolor="#666666"
     borderopacity="1.0"
     gridtolerance="10000"
     guidetolerance="10"
     objecttolerance="10"
     inkscape:pageopacity="0.0"
     inkscape:pageshadow="2"
     inkscape:zoom="2.5608696"
     inkscape:cx="230"
     inkscape:cy="130"
     inkscape:document-units="px"
     inkscape:current-layer="layer1"
     inkscape:window-width="1272"
     inkscape:window-height="955"
     inkscape:window-x="0"
     inkscape:window-y="0"
     width="460px"
     height="260px" />
  <metadata
     id="metadata7">
    <rdf:RDF>
      <cc:Work
         rdf:about="">
        <dc:format>image/svg+xml</dc:format>
        <dc:type
           rdf:resource="http://purl.org/dc/dcmitype/StillImage" />
      </cc:Work>
    </rdf:RDF>
  </metadata>
  <g
     inkscape:label="Layer 1"
     inkscape:groupmode="layer"
     id="layer1"
     style="display:inline"
     transform="translate(-145.36607,-373.29075)">
    <path
       style="fill:#ffcc00;fill-opacity:1;fill-rule:evenodd;stroke:none;stroke-width:1px;stroke-linecap:butt;stroke-linejoin:miter;stroke-opacity:1"
       d="M 414.62946,417.67243 L 500.70089,417.67243 L 496.77232,424.45815 L 417.84374,425.17243 L 414.62946,417.67243 z "
       id="path4429" />
    <rect
       style="fill:#ffcc99;fill-opacity:1;fill-rule:evenodd;stroke:#ff0000;stroke-width:1;stroke-linecap:square;stroke-linejoin:round;stroke-miterlimit:4;stroke-dasharray:none;stroke-dashoffset:0;stroke-opacity:1"
       id="rect4431"
       width="135.71428"
       height="83.928574"
       x="243.02232"
       y="486.24387" />
    <path
       style="fill:none;fill-opacity:0.75;fill-rule:evenodd;stroke:#ff0000;stroke-width:1px;stroke-linecap:butt;stroke-linejoin:miter;stroke-opacity:1"
       d="M 294.9866,435.17243 L 294.9866,451.601 L 242.84374,480.17243 L 242.84374,570.52957 L 378.91517,570.52957 L 378.91517,480.17243 L 328.91517,451.601 L 328.91517,435.17243 L 294.9866,435.17243 z "
       id="path2170"
       sodipodi:nodetypes="ccccccccc" />
    <g
       id="g8359"
       transform="translate(2.4866,4.2388176)">
      <path
         style="fill:#000000;fill-opacity:1;fill-rule:evenodd;stroke:none;stroke-width:1px;stroke-linecap:butt;stroke-linejoin:miter;stroke-opacity:1"
         d="M 163.875,497.21875 L 163.875,498.21875 C 164.54759,498.21875 172.01796,498.31696 179.25,498.40625 C 186.48204,498.49554 193.53125,498.5625 193.53125,498.5625 L 193.53125,497.5625 C 193.53125,497.5625 186.48224,497.49554 179.25,497.40625 C 172.01776,497.31696 164.63097,497.21874 163.875,497.21875 z "
         id="path2172" />
      <path
         d="M 182.89557,493.5044 L 194.85714,498.07567 L 182.78369,502.34268 C 184.73661,499.75793 184.77074,496.18814 182.89557,493.5044 z "
         style="font-size:16px;fill-rule:evenodd;stroke-width:0.625;stroke-linejoin:round"
         id="path8365" />
    </g>
    <g
       id="g4334"
       transform="translate(2.4866,4.2388176)">
      <g
         style="fill:#ffcc99;fill-opacity:1"
         id="g3153">
        <path
           style="fill:#ffcc99;fill-opacity:1;fill-rule:evenodd;stroke:#000000;stroke-width:1px;stroke-linecap:butt;stroke-linejoin:miter;stroke-opacity:1"
           d="M 195.35714,492.36218 L 206.78571,498.07647 L 195.35714,504.1479 L 195.35714,492.36218 z "
           id="path2174"
           sodipodi:nodetypes="cccc" />
        <path
           sodipodi:nodetypes="cccc"
           id="path2178"
           d="M 219.21428,504.1479 L 207.78571,498.43361 L 219.21428,492.36218 L 219.21428,504.1479 z "
           style="fill:#ffcc99;fill-opacity:1;fill-rule:evenodd;stroke:#000000;stroke-width:1px;stroke-linecap:butt;stroke-linejoin:miter;stroke-opacity:1"
           inkscape:transform-center-x="-6.214285" />
      </g>
      <path
         transform="translate(3.3571364,16.964299)"
         d="M 206.42857 481.29074 A 2.5 2.5 0 1 1  201.42857,481.29074 A 2.5 2.5 0 1 1  206.42857 481.29074 z"
         sodipodi:ry="2.5"
         sodipodi:rx="2.5"
         sodipodi:cy="481.29074"
         sodipodi:cx="203.92857"
         id="path2180"
         style="fill:#ffcc99;fill-opacity:1;fill-rule:evenodd;stroke:#000000;stroke-width:1;stroke-linecap:square;stroke-linejoin:round;stroke-miterlimit:4;stroke-dasharray:none;stroke-dashoffset:0;stroke-opacity:1"
         sodipodi:type="arc" />
    </g>
    <path
       style="fill:none;fill-opacity:0.75;fill-rule:evenodd;stroke:#000000;stroke-width:1px;stroke-linecap:butt;stroke-linejoin:miter;stroke-opacity:1"
       d="M 222.12946,502.31529 L 242.84374,503.02957"
       id="path3157" />
    <g
       id="g8391"
       transform="translate(2.4866,4.2388176)">
      <path
         style="fill:#000000;fill-opacity:1;fill-rule:evenodd;stroke:none;stroke-width:1px;stroke-linecap:butt;stroke-linejoin:miter;stroke-opacity:1"
         d="M 319.09375,519.375 C 317.7214,519.375 316.25544,519.68839 315.09375,520.5 C 313.93206,521.31161 313.125,522.64188 313.125,524.5 C 313.125,533.94924 313.21874,547.80827 313.21875,557.28125 C 313.21875,558.0904 312.65228,559.16583 311.71875,560 C 310.78522,560.83417 309.49966,561.43749 308.125,561.4375 C 305.33451,561.4375 303.0625,559.33939 303.0625,557.28125 C 303.0625,547.80763 303.15625,533.75999 303.15625,524.5 C 303.15625,522.98133 302.16446,521.8362 300.96875,521.125 C 299.77304,520.4138 298.33014,520.0625 297.15625,520.0625 C 295.99218,520.0625 294.57481,520.39728 293.375,521.09375 C 292.17519,521.79022 291.1875,522.92804 291.1875,524.5 C 291.1875,533.75621 291.15625,555.99952 291.15625,557.28125 C 291.15625,559.39121 289.07892,561.43748 286.09375,561.4375 C 283.12335,561.4375 281,559.22872 281,557.28125 C 281,547.79726 281.21875,533.89588 281.21875,524.5 C 281.21875,521.92722 278.51444,519.71877 275.25,519.71875 C 271.97935,519.71875 269.25,521.97403 269.25,524.5 C 269.25,540.73107 269.625,584.875 269.625,584.875 L 270.625,584.84375 C 270.625,584.84375 270.25,540.71639 270.25,524.5 C 270.25,522.73374 272.44923,520.71875 275.25,520.71875 C 278.05699,520.71877 280.21875,522.66742 280.21875,524.5 C 280.21875,533.88105 280,547.7826 280,557.28125 C 280,559.91578 282.63557,562.4375 286.09375,562.4375 C 289.53717,562.43748 292.15625,560.03807 292.15625,557.28125 C 292.15625,556.01029 292.1875,533.75769 292.1875,524.5 C 292.1875,523.33456 292.86986,522.52097 293.875,521.9375 C 294.88014,521.35403 296.17747,521.0625 297.15625,521.0625 C 298.12521,521.0625 299.45951,521.39971 300.46875,522 C 301.47799,522.60029 302.15625,523.4075 302.15625,524.5 C 302.15625,533.75386 302.0625,547.80165 302.0625,557.28125 C 302.0625,560.04208 304.84405,562.4375 308.125,562.4375 C 309.78607,562.43749 311.31103,561.72865 312.40625,560.75 C 313.50147,559.77135 314.21875,558.50652 314.21875,557.28125 C 314.21874,547.80103 314.125,533.94198 314.125,524.5 C 314.125,522.92248 314.72458,521.96341 315.65625,521.3125 C 316.58792,520.66159 317.87682,520.375 319.09375,520.375 C 320.30993,520.375 321.59918,520.66002 322.53125,521.3125 C 323.46332,521.96498 324.0625,522.92875 324.0625,524.5 C 324.0625,533.93357 323.71875,547.80297 323.71875,557.28125 C 323.71875,558.51583 324.4888,559.77409 325.59375,560.75 C 326.6987,561.72591 328.19202,562.4375 329.8125,562.4375 C 333.01149,562.43748 335.875,560.05511 335.875,557.28125 C 335.875,547.82034 336.03125,533.97662 336.03125,524.5 C 336.03125,523.70722 336.61467,522.62036 337.5625,521.78125 C 338.51033,520.94214 339.8046,520.375 341.03125,520.375 C 342.23209,520.375 343.51069,521.03922 344.46875,521.9375 C 345.42681,522.83578 346,523.98107 346,524.5 C 346,540.80069 346,584.84375 346,584.84375 L 347,584.84375 C 347,584.84375 347,540.8007 347,524.5 C 347,523.41659 346.21563,522.24132 345.125,521.21875 C 344.03437,520.19618 342.59826,519.375 341.03125,519.375 C 339.49005,519.375 338.00711,520.08791 336.90625,521.0625 C 335.80539,522.03709 335.03125,523.26186 335.03125,524.5 C 335.03125,533.9659 334.875,547.80961 334.875,557.28125 C 334.875,559.32797 332.50636,561.43748 329.8125,561.4375 C 328.48655,561.4375 327.19613,560.83564 326.25,560 C 325.30387,559.16436 324.71875,558.08616 324.71875,557.28125 C 324.71875,547.82695 325.0625,533.9576 325.0625,524.5 C 325.0625,522.6472 324.25504,521.31294 323.09375,520.5 C 321.93246,519.68706 320.46684,519.375 319.09375,519.375 z "
         id="path3159" />
      <path
         d="M 350.93538,574.16866 L 346.51587,586.18712 L 342.0964,574.16865 C 344.70566,576.0887 348.27559,576.07764 350.93538,574.16866 z "
         style="font-size:16px;fill-rule:evenodd;stroke-width:0.625;stroke-linejoin:round"
         id="path8397" />
    </g>
    <path
       style="fill:none;fill-opacity:0.75;fill-rule:evenodd;stroke:#000000;stroke-width:1px;stroke-linecap:butt;stroke-linejoin:miter;stroke-opacity:1"
       d="M 310.34374,434.81529 L 310.34374,400.52957 L 412.12946,400.52957"
       id="path4328"
       sodipodi:nodetypes="ccc" />
    <path
       style="fill:none;fill-opacity:0.75;fill-rule:evenodd;stroke:#000000;stroke-width:1px;stroke-linecap:butt;stroke-linejoin:miter;stroke-opacity:1"
       d="M 417.12946,378.02957 L 497.4866,378.02957 C 497.4866,378.02957 502.84374,390.351 502.84374,401.95814 C 502.84374,413.56528 497.4866,424.45814 497.4866,424.45814 L 417.12946,424.45814 C 417.12946,424.45814 411.77231,413.56528 411.77231,401.95814 C 411.77231,390.351 417.12946,378.02957 417.12946,378.02957 z "
       id="path4330"
       sodipodi:nodetypes="ccsccsc" />
    <g
       id="g4340"
       transform="translate(2.4866,4.2388176)">
      <g
         id="g4342"
         style="fill:#ffcc99;fill-opacity:1">
        <path
           sodipodi:nodetypes="cccc"
           id="path4344"
           d="M 195.35714,492.36218 L 206.78571,498.07647 L 195.35714,504.1479 L 195.35714,492.36218 z "
           style="fill:#ffcc99;fill-opacity:1;fill-rule:evenodd;stroke:#000000;stroke-width:1px;stroke-linecap:butt;stroke-linejoin:miter;stroke-opacity:1" />
        <path
           inkscape:transform-center-x="-6.214285"
           style="fill:#ffcc99;fill-opacity:1;fill-rule:evenodd;stroke:#000000;stroke-width:1px;stroke-linecap:butt;stroke-linejoin:miter;stroke-opacity:1"
           d="M 219.21428,504.1479 L 207.78571,498.43361 L 219.21428,492.36218 L 219.21428,504.1479 z "
           id="path4346"
           sodipodi:nodetypes="cccc" />
      </g>
      <path
         sodipodi:type="arc"
         style="fill:#ffcc99;fill-opacity:1;fill-rule:evenodd;stroke:#000000;stroke-width:1;stroke-linecap:square;stroke-linejoin:round;stroke-miterlimit:4;stroke-dasharray:none;stroke-dashoffset:0;stroke-opacity:1"
         id="path4348"
         sodipodi:cx="203.92857"
         sodipodi:cy="481.29074"
         sodipodi:rx="2.5"
         sodipodi:ry="2.5"
         d="M 206.42857 481.29074 A 2.5 2.5 0 1 1  201.42857,481.29074 A 2.5 2.5 0 1 1  206.42857 481.29074 z"
         transform="translate(3.3571364,16.964299)" />
    </g>
    <g
       id="g8407"
       transform="translate(2.4866,4.2388176)">
      <path
         style="fill:#000000;fill-opacity:1;fill-rule:evenodd;stroke:none;stroke-width:1px;stroke-linecap:butt;stroke-linejoin:miter;stroke-opacity:1"
         d="M 488.78125,420.21875 L 488.78125,464.15625 L 488.78125,464.65625 L 489.28125,464.65625 L 556.65625,464.65625 L 556.65625,494.15625 L 557.65625,494.15625 L 557.65625,464.15625 L 557.65625,463.65625 L 557.15625,463.65625 L 489.78125,463.65625 L 489.78125,420.21875 L 488.78125,420.21875 z "
         id="path4380" />
      <path
         d="M 561.57997,483.45745 L 557.16047,495.47592 L 552.74098,483.45745 C 555.35025,485.3775 558.92018,485.36644 561.57997,483.45745 z "
         style="font-size:16px;fill-rule:evenodd;stroke-width:0.625;stroke-linejoin:round"
         id="path8413" />
    </g>
    <g
       id="g8399"
       transform="translate(2.4866,4.2388176)">
      <path
         style="fill:#000000;fill-opacity:1;fill-rule:evenodd;stroke:none;stroke-width:1px;stroke-linecap:butt;stroke-linejoin:miter;stroke-opacity:1"
         d="M 376.78125,552.9375 L 376.78125,553.9375 L 453.78125,553.9375 L 453.78125,574.15625 L 454.78125,574.15625 L 454.78125,553.4375 L 454.78125,552.9375 L 454.28125,552.9375 L 376.78125,552.9375 z "
         id="path4382" />
      <path
         d="M 458.72283,563.45745 L 454.30333,575.47592 L 449.88384,563.45745 C 452.49311,565.3775 456.06304,565.36644 458.72283,563.45745 z "
         style="font-size:16px;fill-rule:evenodd;stroke-width:0.625;stroke-linejoin:round"
         id="path8405" />
    </g>
    <path
       style="fill:none;fill-opacity:0.75;fill-rule:evenodd;stroke:#000000;stroke-width:1px;stroke-linecap:butt;stroke-linejoin:miter;stroke-opacity:1"
       d="M 243.55803,486.95814 L 376.77231,486.95814"
       id="path4384" />
    <path
       style="fill:none;fill-opacity:0.75;fill-rule:evenodd;stroke:#000000;stroke-width:1px;stroke-linecap:butt;stroke-linejoin:miter;stroke-opacity:1"
       d="M 293.20089,489.45814 L 327.12946,489.45814"
       id="path4386" />
    <path
       style="fill:none;fill-opacity:0.75;fill-rule:evenodd;stroke:#000000;stroke-width:1px;stroke-linecap:butt;stroke-linejoin:miter;stroke-opacity:1"
       d="M 321.77231,493.38672 L 296.41517,493.38672"
       id="path4388" />
    <path
       style="fill:none;fill-opacity:0.75;fill-rule:evenodd;stroke:#000000;stroke-width:1px;stroke-linecap:butt;stroke-linejoin:miter;stroke-opacity:1"
       d="M 303.91517,496.601 L 315.34374,496.601"
       id="path4390" />
    <text
       xml:space="preserve"
       style="font-size:16px;font-style:normal;font-weight:normal;fill:#000000;fill-opacity:1;stroke:none;stroke-width:1px;stroke-linecap:butt;stroke-linejoin:miter;stroke-opacity:1;font-family:Bitstream Vera Sans"
       x="287.06894"
       y="519.42523"
       id="text4392"><tspan
         sodipodi:role="line"
         id="tspan4394"
         x="287.06894"
         y="519.42523">A + B</tspan></text>
    <text
       xml:space="preserve"
       style="font-size:16px;font-style:normal;font-weight:normal;fill:#000000;fill-opacity:1;stroke:none;stroke-width:1px;stroke-linecap:butt;stroke-linejoin:miter;stroke-opacity:1;font-family:Bitstream Vera Sans"
       x="147.72964"
       y="468.41269"
       id="text4396"><tspan
         sodipodi:role="line"
         id="tspan4398"
         x="147.72964"
         y="468.41269">A + B</tspan></text>
    <text
       xml:space="preserve"
       style="font-size:16px;font-style:normal;font-weight:normal;fill:#000000;fill-opacity:1;stroke:none;stroke-width:1px;stroke-linecap:butt;stroke-linejoin:miter;stroke-opacity:1;font-family:Bitstream Vera Sans"
       x="247.30888"
       y="614.55469"
       id="text4400"><tspan
         sodipodi:role="line"
         id="tspan4402"
         x="247.30888"
         y="614.55469">Steam</tspan></text>
    <text
       xml:space="preserve"
       style="font-size:16px;font-style:normal;font-weight:normal;text-align:center;text-anchor:middle;fill:#000000;fill-opacity:1;stroke:none;stroke-width:1px;stroke-linecap:butt;stroke-linejoin:miter;stroke-opacity:1;font-family:Bitstream Vera Sans"
       x="465.85513"
       y="608.4339"
       id="text4404"><tspan
         sodipodi:role="line"
         id="tspan4406"
         x="465.85513"
         y="608.4339">Still</tspan><tspan
         sodipodi:role="line"
         x="465.85513"
         y="628.821"
         id="tspan4408">Bottoms</tspan></text>
    <text
       xml:space="preserve"
       style="font-size:16px;font-style:normal;font-weight:normal;fill:#000000;fill-opacity:1;stroke:none;stroke-width:1px;stroke-linecap:butt;stroke-linejoin:miter;stroke-opacity:1;font-family:Bitstream Vera Sans"
       x="522.33264"
       y="533.11328"
       id="text4410"><tspan
         sodipodi:role="line"
         id="tspan4412"
         x="522.33264"
         y="533.11328">Purified A</tspan></text>
    <text
       xml:space="preserve"
       style="font-size:16px;font-style:normal;font-weight:normal;text-align:center;text-anchor:middle;fill:#000000;fill-opacity:1;stroke:none;stroke-width:1px;stroke-linecap:butt;stroke-linejoin:miter;stroke-opacity:1;font-family:Bitstream Vera Sans"
       x="455.62231"
       y="448.21732"
       id="text4414"
       transform="scale(0.9566238,1.045343)"><tspan
         sodipodi:role="line"
         id="tspan4416"
         x="455.62231"
         y="448.21732">Cooling</tspan><tspan
         sodipodi:role="line"
         x="455.62231"
         y="470.5997"
         id="tspan4418">Water</tspan></text>
    <text
       xml:space="preserve"
       style="font-size:16px;font-style:normal;font-weight:normal;fill:#000000;fill-opacity:1;stroke:none;stroke-width:1px;stroke-linecap:butt;stroke-linejoin:miter;stroke-opacity:1;font-family:Bitstream Vera Sans"
       x="305.87885"
       y="466.95816"
       id="text4420"><tspan
         sodipodi:role="line"
         id="tspan4422"
         x="305.87885"
         y="466.95816">A</tspan></text>
    <g
       id="g4350"
       transform="translate(204.12946,58.703102)">
      <g
         id="g4352"
         style="fill:#ffcc99;fill-opacity:1">
        <path
           sodipodi:nodetypes="cccc"
           id="path4354"
           d="M 195.35714,492.36218 L 206.78571,498.07647 L 195.35714,504.1479 L 195.35714,492.36218 z "
           style="fill:#ffcc99;fill-opacity:1;fill-rule:evenodd;stroke:#000000;stroke-width:1px;stroke-linecap:butt;stroke-linejoin:miter;stroke-opacity:1" />
        <path
           inkscape:transform-center-x="-6.214285"
           style="fill:#ffcc99;fill-opacity:1;fill-rule:evenodd;stroke:#000000;stroke-width:1px;stroke-linecap:butt;stroke-linejoin:miter;stroke-opacity:1"
           d="M 219.21428,504.1479 L 207.78571,498.43361 L 219.21428,492.36218 L 219.21428,504.1479 z "
           id="path4356"
           sodipodi:nodetypes="cccc" />
      </g>
      <path
         sodipodi:type="arc"
         style="fill:#ffcc99;fill-opacity:1;fill-rule:evenodd;stroke:#000000;stroke-width:1;stroke-linecap:square;stroke-linejoin:round;stroke-miterlimit:4;stroke-dasharray:none;stroke-dashoffset:0;stroke-opacity:1"
         id="path4358"
         sodipodi:cx="203.92857"
         sodipodi:cy="481.29074"
         sodipodi:rx="2.5"
         sodipodi:ry="2.5"
         d="M 206.42857 481.29074 A 2.5 2.5 0 1 1  201.42857,481.29074 A 2.5 2.5 0 1 1  206.42857 481.29074 z"
         transform="translate(3.3571364,16.964299)" />
    </g>
    <g
       id="g4374"
       transform="translate(2.4866,4.5959605)">
      <g
         transform="translate(315.21429,-34.464287)"
         id="g4362"
         style="fill:#ffcc99;fill-opacity:1">
        <path
           sodipodi:nodetypes="cccc"
           id="path4364"
           d="M 195.35714,492.36218 L 206.78571,498.07647 L 195.35714,504.1479 L 195.35714,492.36218 z "
           style="fill:#ffcc99;fill-opacity:1;fill-rule:evenodd;stroke:#000000;stroke-width:1px;stroke-linecap:butt;stroke-linejoin:miter;stroke-opacity:1" />
        <path
           inkscape:transform-center-x="-6.214285"
           style="fill:#ffcc99;fill-opacity:1;fill-rule:evenodd;stroke:#000000;stroke-width:1px;stroke-linecap:butt;stroke-linejoin:miter;stroke-opacity:1"
           d="M 219.21428,504.1479 L 207.78571,498.43361 L 219.21428,492.36218 L 219.21428,504.1479 z "
           id="path4366"
           sodipodi:nodetypes="cccc" />
      </g>
      <path
         sodipodi:type="arc"
         style="fill:#000000;fill-opacity:1;fill-rule:evenodd;stroke:#000000;stroke-width:1;stroke-linecap:square;stroke-linejoin:round;stroke-miterlimit:4;stroke-dasharray:none;stroke-dashoffset:0;stroke-opacity:1"
         id="path4368"
         sodipodi:cx="203.92857"
         sodipodi:cy="481.29074"
         sodipodi:rx="2.5"
         sodipodi:ry="2.5"
         d="M 206.42857 481.29074 A 2.5 2.5 0 1 1  201.42857,481.29074 A 2.5 2.5 0 1 1  206.42857 481.29074 z"
         transform="translate(318.57143,-17.499988)" />
    </g>
    <g
       id="g8367"
       transform="translate(2.4866,4.2388176)">
      <path
         style="fill:#000000;fill-opacity:1;fill-rule:evenodd;stroke:none;stroke-width:1px;stroke-linecap:butt;stroke-linejoin:miter;stroke-opacity:1"
         d="M 269.84375,466.8125 L 269.84375,480.75 L 270.84375,480.75 L 270.84375,466.8125 L 269.84375,466.8125 z "
         id="path5404" />
      <path
         d="M 267.9369,472.05762 L 270.34753,465.5021 L 272.75816,472.05762 C 271.33493,471.01032 269.38769,471.01636 267.9369,472.05762 z "
         style="font-size:16px;fill-rule:evenodd;stroke-width:0.625;stroke-linejoin:round"
         id="path8373" />
    </g>
    <g
       id="g8375"
       transform="translate(2.4866,4.2388176)">
      <path
         style="fill:#000000;fill-opacity:1;fill-rule:evenodd;stroke:none;stroke-width:1px;stroke-linecap:butt;stroke-linejoin:miter;stroke-opacity:1"
         d="M 307.90625,466.8125 L 307.90625,480.75 L 308.90625,480.75 L 308.90625,466.8125 L 307.90625,466.8125 z "
         id="path5410" />
      <path
         d="M 305.97262,472.05762 L 308.38325,465.5021 L 310.79388,472.05762 C 309.37065,471.01032 307.42341,471.01636 305.97262,472.05762 z "
         style="font-size:16px;fill-rule:evenodd;stroke-width:0.625;stroke-linejoin:round"
         id="path8381" />
    </g>
    <g
       id="g8383"
       transform="translate(2.4866,4.2388176)">
      <path
         style="fill:#000000;fill-opacity:1;fill-rule:evenodd;stroke:none;stroke-width:1px;stroke-linecap:butt;stroke-linejoin:miter;stroke-opacity:1"
         d="M 345.9375,466.8125 L 345.9375,480.75 L 346.9375,480.75 L 346.9375,466.8125 L 345.9375,466.8125 z "
         id="path5412" />
      <path
         d="M 344.00833,472.05762 L 346.41896,465.5021 L 348.82959,472.05762 C 347.40636,471.01032 345.45912,471.01636 344.00833,472.05762 z "
         style="font-size:16px;fill-rule:evenodd;stroke-width:0.625;stroke-linejoin:round"
         id="path8389" />
    </g>
    <g
       id="g8415"
       transform="translate(2.4866,4.2388176)">
      <path
         style="fill:#000000;fill-opacity:1;fill-rule:evenodd;stroke:none;stroke-width:1px;stroke-linecap:butt;stroke-linejoin:miter;stroke-opacity:1"
         d="M 449.03125,385.0625 C 447.6589,385.0625 446.19294,385.37589 445.03125,386.1875 C 443.86956,386.99911 443.03126,388.36064 443.03125,390.21875 C 443.03125,399.66799 443.15625,394.24576 443.15625,403.71875 C 443.15625,404.5279 442.58978,405.57208 441.65625,406.40625 C 440.72272,407.24042 439.43716,407.84375 438.0625,407.84375 C 435.27201,407.84375 433.00001,405.77687 433,403.71875 C 433,394.24513 433.06251,399.47876 433.0625,390.21875 C 433.0625,388.70008 432.10196,387.55495 430.90625,386.84375 C 429.71054,386.13255 428.26764,385.78125 427.09375,385.78125 C 425.92968,385.78125 424.51231,386.08478 423.3125,386.78125 C 422.11269,387.47772 421.12501,388.6468 421.125,390.21875 C 421.125,399.47495 421.09373,429.93689 421.09375,431.21875 L 422.09375,431.21875 C 422.09374,429.94788 422.125,399.47645 422.125,390.21875 C 422.12501,389.05332 422.80736,388.23972 423.8125,387.65625 C 424.81764,387.07278 426.11497,386.78125 427.09375,386.78125 C 428.06272,386.78125 429.36576,387.11846 430.375,387.71875 C 431.38424,388.31904 432.0625,389.12625 432.0625,390.21875 C 432.06251,399.47263 432,394.23915 432,403.71875 C 432.00001,406.47956 434.78155,408.84375 438.0625,408.84375 C 439.72357,408.84375 441.21728,408.1349 442.3125,407.15625 C 443.40772,406.1776 444.15625,404.94402 444.15625,403.71875 C 444.15625,394.23851 444.03125,399.66073 444.03125,390.21875 C 444.03125,388.64124 444.66208,387.68216 445.59375,387.03125 C 446.52542,386.38034 447.81432,386.0625 449.03125,386.0625 C 450.24744,386.06251 451.50543,386.37877 452.4375,387.03125 C 453.36957,387.68373 454,388.6475 454,390.21875 C 454.00001,394.93554 453.92885,395.89804 453.84375,396.90625 C 453.75865,397.91446 453.65625,398.97961 453.65625,403.71875 C 453.65624,404.95333 454.39505,406.18034 455.5,407.15625 C 456.60495,408.13216 458.12952,408.84375 459.75,408.84375 C 462.94901,408.84374 465.8125,406.49261 465.8125,403.71875 C 465.81251,394.25782 465.96875,399.69537 465.96875,390.21875 C 465.96874,389.42598 466.55216,388.33911 467.5,387.5 C 468.44784,386.66089 469.71085,386.0625 470.9375,386.0625 C 472.13835,386.06251 473.41694,386.75798 474.375,387.65625 C 475.33306,388.55452 475.9375,389.69982 475.9375,390.21875 C 475.93751,406.51946 475.9375,431.21875 475.9375,431.21875 L 476.9375,431.21875 C 476.9375,431.21875 476.93751,406.51946 476.9375,390.21875 C 476.9375,389.13534 476.15313,387.96007 475.0625,386.9375 C 473.97187,385.91493 472.50451,385.06251 470.9375,385.0625 C 469.3963,385.0625 467.94461,385.77541 466.84375,386.75 C 465.74289,387.72459 464.96874,388.98061 464.96875,390.21875 C 464.96875,399.68465 464.81251,394.24709 464.8125,403.71875 C 464.8125,405.76547 462.44387,407.84374 459.75,407.84375 C 458.42405,407.84375 457.13363,407.24189 456.1875,406.40625 C 455.24137,405.57061 454.65624,404.52365 454.65625,403.71875 C 454.65625,398.9916 454.75866,398.00807 454.84375,397 C 454.92884,395.99193 455.00001,394.94756 455,390.21875 C 455,388.36595 454.19254,387.03169 453.03125,386.21875 C 451.86996,385.40581 450.40434,385.06251 449.03125,385.0625 z "
         id="path8331" />
      <path
         d="M 480.86396,420.51738 L 476.44444,432.53584 L 472.02498,420.51736 C 474.63424,422.43742 478.20417,422.42636 480.86396,420.51738 z "
         style="font-size:16px;fill-rule:evenodd;stroke-width:0.625;stroke-linejoin:round"
         id="path8421" />
    </g>
  </g>
</svg>
